<svg xmlns="http://www.w3.org/2000/svg" xmlns:xlink="http://www.w3.org/1999/xlink" width="288" zoomAndPan="magnify" viewBox="0 0 216 215.999996" height="288" preserveAspectRatio="xMidYMid meet" version="1.0"><defs><clipPath id="a91d643482"><path d="M 0 37.113281 L 216 37.113281 L 216 178.863281 L 0 178.863281 Z M 0 37.113281 " clip-rule="nonzero"/></clipPath></defs><g clip-path="url(#a91d643482)"><path fill="#ffffff" d="M 203.625 37.480469 L 12.191406 37.480469 C 11.386719 37.480469 10.589844 37.5625 9.796875 37.71875 C 9.007812 37.875 8.242188 38.109375 7.5 38.417969 C 6.753906 38.726562 6.046875 39.105469 5.378906 39.550781 C 4.707031 40 4.089844 40.507812 3.519531 41.078125 C 2.949219 41.648438 2.441406 42.265625 1.992188 42.9375 C 1.546875 43.605469 1.167969 44.3125 0.859375 45.058594 C 0.550781 45.800781 0.316406 46.566406 0.160156 47.359375 C 0.00390625 48.148438 -0.078125 48.945312 -0.078125 49.75 L -0.078125 166.429688 C -0.078125 167.234375 0.00390625 168.035156 0.160156 168.824219 C 0.316406 169.613281 0.550781 170.378906 0.859375 171.125 C 1.167969 171.867188 1.546875 172.574219 1.992188 173.242188 C 2.441406 173.914062 2.949219 174.53125 3.519531 175.101562 C 4.089844 175.671875 4.707031 176.179688 5.378906 176.628906 C 6.046875 177.074219 6.753906 177.453125 7.5 177.761719 C 8.242188 178.070312 9.007812 178.304688 9.796875 178.460938 C 10.589844 178.621094 11.386719 178.699219 12.191406 178.699219 L 203.625 178.699219 C 204.429688 178.699219 205.226562 178.621094 206.019531 178.460938 C 206.808594 178.304688 207.574219 178.070312 208.320312 177.761719 C 209.0625 177.453125 209.769531 177.078125 210.441406 176.628906 C 211.109375 176.179688 211.730469 175.671875 212.296875 175.101562 C 212.867188 174.535156 213.375 173.914062 213.824219 173.246094 C 214.273438 172.574219 214.648438 171.867188 214.957031 171.125 C 215.265625 170.378906 215.5 169.613281 215.660156 168.824219 C 215.816406 168.035156 215.894531 167.234375 215.894531 166.429688 L 215.894531 49.75 C 215.894531 48.945312 215.816406 48.148438 215.660156 47.355469 C 215.5 46.566406 215.265625 45.800781 214.957031 45.054688 C 214.648438 44.3125 214.273438 43.605469 213.824219 42.9375 C 213.375 42.265625 212.867188 41.648438 212.296875 41.078125 C 211.730469 40.507812 211.109375 40 210.441406 39.550781 C 209.769531 39.105469 209.0625 38.726562 208.320312 38.417969 C 207.574219 38.109375 206.808594 37.875 206.019531 37.71875 C 205.226562 37.558594 204.429688 37.480469 203.625 37.480469 Z M 141.851562 108.089844 L 209.25 48.011719 C 209.433594 48.578125 209.53125 49.15625 209.539062 49.75 L 209.539062 166.429688 C 209.53125 167.023438 209.433594 167.605469 209.25 168.167969 Z M 203.617188 43.839844 C 203.84375 43.847656 204.066406 43.871094 204.289062 43.90625 L 111.820312 126.328125 C 111.554688 126.566406 111.265625 126.78125 110.960938 126.964844 C 110.652344 127.152344 110.332031 127.3125 109.996094 127.4375 C 109.660156 127.566406 109.316406 127.664062 108.960938 127.730469 C 108.609375 127.792969 108.253906 127.828125 107.894531 127.828125 C 107.535156 127.828125 107.175781 127.792969 106.824219 127.730469 C 106.46875 127.664062 106.125 127.566406 105.789062 127.4375 C 105.453125 127.3125 105.132812 127.152344 104.824219 126.964844 C 104.519531 126.78125 104.230469 126.566406 103.964844 126.328125 L 11.519531 43.90625 C 11.742188 43.871094 11.96875 43.847656 12.191406 43.839844 Z M 6.570312 168.167969 C 6.382812 167.605469 6.289062 167.023438 6.28125 166.429688 L 6.28125 49.75 C 6.289062 49.15625 6.382812 48.578125 6.570312 48.011719 L 73.96875 108.089844 Z M 12.191406 172.347656 C 11.96875 172.335938 11.742188 172.316406 11.519531 172.28125 L 78.738281 112.355469 L 99.75 131.074219 C 100.308594 131.570312 100.90625 132.011719 101.542969 132.402344 C 102.179688 132.789062 102.847656 133.113281 103.542969 133.378906 C 104.242188 133.644531 104.957031 133.847656 105.691406 133.980469 C 106.421875 134.117188 107.164062 134.183594 107.910156 134.183594 C 108.65625 134.183594 109.394531 134.117188 110.128906 133.980469 C 110.863281 133.847656 111.578125 133.644531 112.273438 133.378906 C 112.972656 133.113281 113.640625 132.789062 114.277344 132.402344 C 114.914062 132.011719 115.511719 131.570312 116.066406 131.074219 L 137.074219 112.347656 L 204.292969 172.273438 C 204.070312 172.308594 203.84375 172.332031 203.621094 172.339844 Z M 12.191406 172.347656 " fill-opacity="1" fill-rule="nonzero"/></g></svg>