<svg xmlns="http://www.w3.org/2000/svg" xmlns:xlink="http://www.w3.org/1999/xlink" width="288" zoomAndPan="magnify" viewBox="0 0 216 215.999996" height="288" preserveAspectRatio="xMidYMid meet" version="1.0"><defs><clipPath id="d740b6ab11"><path d="M 6 2 L 208 2 L 208 211.230469 L 6 211.230469 Z M 6 2 " clip-rule="nonzero"/></clipPath></defs><g clip-path="url(#d740b6ab11)"><path fill="#ffffff" d="M 198.804688 188.109375 L 198.851562 188.109375 Z M 40.625 12.511719 C 38.625 12.511719 36.734375 13.417969 34.679688 15.21875 C 34.453125 15.429688 31.511719 18.222656 29.597656 20.042969 L 27.929688 21.621094 C 18.171875 30.742188 13.746094 47.164062 16.660156 63.460938 C 17.59375 68.726562 19.105469 74.179688 21.152344 79.667969 C 31.464844 107.367188 51.042969 131.445312 65.65625 146.777344 C 80.199219 162.207031 103.203125 183.046875 130.300781 194.824219 C 135.675781 197.160156 141.039062 198.964844 146.246094 200.183594 C 162.363281 203.960938 179 200.421875 188.625 191.167969 L 190.230469 189.644531 C 192.09375 187.886719 195 185.132812 195.421875 184.726562 C 201.414062 178.5625 198.421875 173.4375 186.398438 161.210938 L 183.390625 158.125 C 175.777344 150.222656 163 136.988281 152.199219 138.28125 C 149.261719 138.628906 146.195312 140.769531 142.949219 143.035156 C 139.730469 145.28125 136.398438 147.601562 132.40625 148.867188 C 121.683594 152.269531 110.8125 150.035156 101.777344 142.589844 C 96.375 138.136719 90.878906 132.929688 85.886719 127.542969 C 80.839844 122.335938 75.933594 116.574219 71.78125 110.945312 C 64.835938 101.53125 63.191406 90.554688 67.152344 80.027344 C 68.632812 76.105469 71.128906 72.90625 73.550781 69.8125 C 75.984375 66.691406 78.285156 63.746094 78.789062 60.832031 C 80.644531 50.085938 68.125 36.648438 60.636719 28.617188 L 57.722656 25.453125 C 49.789062 16.777344 44.964844 12.511719 40.625 12.511719 Z M 159.253906 211.226562 C 153.863281 211.226562 148.683594 210.570312 144.066406 209.488281 C 138.304688 208.144531 132.390625 206.15625 126.488281 203.589844 C 97.902344 191.167969 73.855469 169.414062 58.714844 153.355469 C 43.503906 137.398438 23.070312 112.21875 12.195312 83.007812 C 9.945312 76.980469 8.285156 70.96875 7.242188 65.140625 C 4.488281 49.699219 6.753906 28.320312 21.398438 14.640625 L 23.015625 13.105469 C 25.054688 11.171875 28.226562 8.160156 28.355469 8.046875 C 43.003906 -4.816406 56.109375 9.515625 64.777344 19.003906 L 67.632812 22.101562 C 76.328125 31.429688 90.875 47.042969 88.210938 62.460938 C 87.296875 67.734375 83.996094 71.964844 81.085938 75.695312 C 79.015625 78.339844 77.0625 80.84375 76.101562 83.398438 C 73.277344 90.894531 74.445312 98.457031 79.476562 105.269531 C 83.378906 110.554688 87.992188 115.980469 92.824219 120.960938 C 97.609375 126.125 102.785156 131.023438 107.859375 135.214844 C 114.394531 140.601562 121.886719 142.167969 129.519531 139.757812 C 132.121094 138.929688 134.722656 137.113281 137.472656 135.195312 C 141.359375 132.488281 145.753906 129.414062 151.074219 128.785156 C 166.660156 126.949219 181.429688 142.3125 190.273438 151.492188 L 193.21875 154.507812 C 202.226562 163.671875 215.839844 177.523438 202.226562 191.449219 C 202.011719 191.652344 198.816406 194.6875 196.800781 196.589844 L 195.246094 198.066406 C 185.175781 207.746094 171.679688 211.226562 159.253906 211.226562 " fill-opacity="1" fill-rule="nonzero"/></g></svg>